<svg height="329pt" viewBox="0 0 329.26933 329" width="329pt" xmlns="http://www.w3.org/2000/svg"><path d="m194.800781 164.769531 128.210938-128.214843c8.34375-8.339844 8.34375-21.824219 0-30.164063-8.339844-8.339844-21.824219-8.339844-30.164063 0l-128.214844 128.214844-128.210937-128.214844c-8.34375-8.339844-21.824219-8.339844-30.164063 0-8.34375 8.339844-8.34375 21.824219 0 30.164063l128.210938 128.214843-128.210938 128.214844c-8.34375 8.339844-8.34375 21.824219 0 30.164063 4.15625 4.160156 9.621094 6.25 15.082032 6.25 5.460937 0 10.921875-2.089844 15.082031-6.25l128.210937-128.214844 128.214844 128.214844c4.160156 4.160156 9.621094 6.25 15.082032 6.25 5.460937 0 10.921874-2.089844 15.082031-6.25 8.34375-8.339844 8.34375-21.824219 0-30.164063zm0 0" fill="url(#paint0_linear)"/>

<defs>
<linearGradient id="paint0_linear" x1="-42.6056" y1="24.9999" x2="92.6056" y2="24.9999" gradientUnits="userSpaceOnUse">
<stop stop-color="#F27A54"/>
<stop offset="1" stop-color="#A154F2"/>
</linearGradient>
</defs>
</svg>