<svg width="45" height="45" viewBox="0 0 45 45" fill="none" xmlns="http://www.w3.org/2000/svg">
<path d="M22.5 45C34.9264 45 45 34.9264 45 22.5C45 10.0736 34.9264 0 22.5 0C10.0736 0 0 10.0736 0 22.5C0 34.9264 10.0736 45 22.5 45Z" fill="#039BE5"/>
<path d="M10.2956 22.0124L31.9894 13.648C32.9963 13.2843 33.8756 13.8937 33.5494 15.4162L33.5513 15.4143L29.8575 32.8162C29.5838 34.0499 28.8506 34.3499 27.825 33.7687L22.2 29.623L19.4869 32.2368C19.1869 32.5368 18.9338 32.7899 18.3525 32.7899L18.7519 27.0655L29.1769 17.6474C29.6306 17.248 29.0756 17.023 28.4775 17.4205L15.5944 25.5318L10.0406 23.7993C8.835 23.4168 8.80875 22.5936 10.2956 22.0124Z" fill="white"/>
</svg>
