<svg width="45" height="45" viewBox="0 0 45 45" fill="none" xmlns="http://www.w3.org/2000/svg">
<path d="M22.5056 0H22.4944C10.0884 0 0 10.0912 0 22.5C0 27.4219 1.58625 31.9837 4.28344 35.6878L1.47938 44.0466L10.1278 41.2819C13.6856 43.6388 17.9297 45 22.5056 45C34.9116 45 45 34.9059 45 22.5C45 10.0941 34.9116 0 22.5056 0Z" fill="#4CAF50"/>
<path d="M35.5978 31.7729C35.055 33.3057 32.9006 34.577 31.1822 34.9482C30.0066 35.1985 28.4709 35.3982 23.3016 33.2551C16.6894 30.5157 12.4312 23.7966 12.0994 23.3607C11.7816 22.9248 9.42749 19.8029 9.42749 16.5741C9.42749 13.3454 11.0672 11.7732 11.7281 11.0982C12.2709 10.5441 13.1681 10.291 14.0287 10.291C14.3072 10.291 14.5575 10.3051 14.7825 10.3163C15.4434 10.3445 15.7753 10.3838 16.2112 11.4273C16.7541 12.7351 18.0759 15.9638 18.2334 16.2957C18.3937 16.6276 18.5541 17.0776 18.3291 17.5135C18.1181 17.9635 17.9325 18.1632 17.6006 18.5457C17.2687 18.9282 16.9537 19.2207 16.6219 19.6313C16.3181 19.9885 15.975 20.371 16.3575 21.032C16.74 21.6788 18.0619 23.836 20.0081 25.5685C22.5197 27.8045 24.5559 28.5188 25.2844 28.8226C25.8272 29.0476 26.4741 28.9941 26.8706 28.5723C27.3741 28.0295 27.9956 27.1295 28.6284 26.2435C29.0784 25.6079 29.6466 25.5291 30.2428 25.7541C30.8503 25.9651 34.065 27.5541 34.7259 27.8832C35.3869 28.2151 35.8228 28.3726 35.9831 28.651C36.1406 28.9295 36.1406 30.2373 35.5978 31.7729Z" fill="#FAFAFA"/>
</svg>
